<svg xmlns="http://www.w3.org/2000/svg" version="1.1" xmlns:xlink="http://www.w3.org/1999/xlink" xmlns:svgjs="http://svgjs.dev/svgjs" width="1440" height="560" preserveAspectRatio="none" viewBox="0 0 1440 560"><g mask="url(&quot;#SvgjsMask1054&quot;)" fill="none"><rect width="1440" height="560" x="0" y="0" fill="url(&quot;#SvgjsLinearGradient1055&quot;)"></rect><path d="M-84.77 403.93L-84.77 403.93" stroke="rgba(153, 50, 204, 1)" stroke-width="1.5"></path><path d="M-84.77 403.93L65.6 504.36" stroke="rgba(153, 50, 204, 1)" stroke-width="1.5"></path><path d="M-84.77 403.93L75.87 638.3" stroke="rgba(153, 50, 204, 1)" stroke-width="1.5"></path><path d="M-84.77 403.93L-75.04 705.47" stroke="rgba(153, 50, 204, 1)" stroke-width="1.5"></path><path d="M-84.77 403.93L234.05 344.43" stroke="rgba(153, 50, 204, 1)" stroke-width="1.5"></path><path d="M-84.77 403.93L213.95 541.51" stroke="rgba(153, 50, 204, 1)" stroke-width="1.5"></path><path d="M-84.77 403.93L206.65 657.12" stroke="rgba(153, 50, 204, 1)" stroke-width="1.5"></path><path d="M-75.04 705.47L-75.04 705.47" stroke="rgba(153, 50, 204, 1)" stroke-width="1.5"></path><path d="M-75.04 705.47L75.87 638.3" stroke="rgba(153, 50, 204, 1)" stroke-width="1.5"></path><path d="M-75.04 705.47L65.6 504.36" stroke="rgba(153, 50, 204, 1)" stroke-width="1.5"></path><path d="M-75.04 705.47L206.65 657.12" stroke="rgba(153, 50, 204, 1)" stroke-width="1.5"></path><path d="M65.6 504.36L65.6 504.36" stroke="rgba(153, 50, 204, 1)" stroke-width="1.5"></path><path d="M65.6 504.36L75.87 638.3" stroke="rgba(153, 50, 204, 1)" stroke-width="1.5"></path><path d="M65.6 504.36L213.95 541.51" stroke="rgba(153, 50, 204, 1)" stroke-width="1.5"></path><path d="M75.87 638.3L75.87 638.3" stroke="rgba(153, 50, 204, 1)" stroke-width="1.5"></path><path d="M75.87 638.3L206.65 657.12" stroke="rgba(153, 50, 204, 1)" stroke-width="1.5"></path><path d="M234.05 344.43L234.05 344.43" stroke="rgba(153, 50, 204, 1)" stroke-width="1.5"></path><path d="M234.05 344.43L371.74 388.75" stroke="rgba(153, 50, 204, 1)" stroke-width="1.5"></path><path d="M234.05 344.43L213.95 541.51" stroke="rgba(153, 50, 204, 1)" stroke-width="1.5"></path><path d="M234.05 344.43L343.08 543.77" stroke="rgba(153, 50, 204, 1)" stroke-width="1.5"></path><path d="M234.05 344.43L65.6 504.36" stroke="rgba(153, 50, 204, 1)" stroke-width="1.5"></path><path d="M234.05 344.43L489.6 407.83" stroke="rgba(153, 50, 204, 1)" stroke-width="1.5"></path><path d="M234.05 344.43L206.65 657.12" stroke="rgba(153, 50, 204, 1)" stroke-width="1.5"></path><path d="M213.95 541.51L213.95 541.51" stroke="rgba(153, 50, 204, 1)" stroke-width="1.5"></path><path d="M213.95 541.51L206.65 657.12" stroke="rgba(153, 50, 204, 1)" stroke-width="1.5"></path><path d="M213.95 541.51L343.08 543.77" stroke="rgba(153, 50, 204, 1)" stroke-width="1.5"></path><path d="M213.95 541.51L75.87 638.3" stroke="rgba(153, 50, 204, 1)" stroke-width="1.5"></path><path d="M206.65 657.12L206.65 657.12" stroke="rgba(153, 50, 204, 1)" stroke-width="1.5"></path><path d="M206.65 657.12L338.24 697.5" stroke="rgba(153, 50, 204, 1)" stroke-width="1.5"></path><path d="M206.65 657.12L343.08 543.77" stroke="rgba(153, 50, 204, 1)" stroke-width="1.5"></path><path d="M206.65 657.12L65.6 504.36" stroke="rgba(153, 50, 204, 1)" stroke-width="1.5"></path><path d="M371.74 388.75L371.74 388.75" stroke="rgba(153, 50, 204, 1)" stroke-width="1.5"></path><path d="M371.74 388.75L489.6 407.83" stroke="rgba(153, 50, 204, 1)" stroke-width="1.5"></path><path d="M343.08 543.77L343.08 543.77" stroke="rgba(153, 50, 204, 1)" stroke-width="1.5"></path><path d="M343.08 543.77L338.24 697.5" stroke="rgba(153, 50, 204, 1)" stroke-width="1.5"></path><path d="M343.08 543.77L371.74 388.75" stroke="rgba(153, 50, 204, 1)" stroke-width="1.5"></path><path d="M343.08 543.77L502.83 516.18" stroke="rgba(153, 50, 204, 1)" stroke-width="1.5"></path><path d="M338.24 697.5L338.24 697.5" stroke="rgba(153, 50, 204, 1)" stroke-width="1.5"></path><path d="M489.6 407.83L489.6 407.83" stroke="rgba(153, 50, 204, 1)" stroke-width="1.5"></path><path d="M489.6 407.83L502.83 516.18" stroke="rgba(153, 50, 204, 1)" stroke-width="1.5"></path><path d="M489.6 407.83L343.08 543.77" stroke="rgba(153, 50, 204, 1)" stroke-width="1.5"></path><path d="M502.83 516.18L502.83 516.18" stroke="rgba(153, 50, 204, 1)" stroke-width="1.5"></path><path d="M502.83 516.18L677.36 506.08" stroke="rgba(153, 50, 204, 1)" stroke-width="1.5"></path><path d="M502.83 516.18L371.74 388.75" stroke="rgba(153, 50, 204, 1)" stroke-width="1.5"></path><path d="M502.83 516.18L516 709.2" stroke="rgba(153, 50, 204, 1)" stroke-width="1.5"></path><path d="M502.83 516.18L644.39 698.79" stroke="rgba(153, 50, 204, 1)" stroke-width="1.5"></path><path d="M516 709.2L516 709.2" stroke="rgba(153, 50, 204, 1)" stroke-width="1.5"></path><path d="M516 709.2L644.39 698.79" stroke="rgba(153, 50, 204, 1)" stroke-width="1.5"></path><path d="M516 709.2L338.24 697.5" stroke="rgba(153, 50, 204, 1)" stroke-width="1.5"></path><path d="M516 709.2L343.08 543.77" stroke="rgba(153, 50, 204, 1)" stroke-width="1.5"></path><path d="M516 709.2L677.36 506.08" stroke="rgba(153, 50, 204, 1)" stroke-width="1.5"></path><path d="M693.76 201.43L693.76 201.43" stroke="rgba(153, 50, 204, 1)" stroke-width="1.5"></path><path d="M693.76 201.43L953.54 241.46" stroke="rgba(153, 50, 204, 1)" stroke-width="1.5"></path><path d="M677.36 506.08L677.36 506.08" stroke="rgba(153, 50, 204, 1)" stroke-width="1.5"></path><path d="M677.36 506.08L821.44 501.66" stroke="rgba(153, 50, 204, 1)" stroke-width="1.5"></path><path d="M644.39 698.79L644.39 698.79" stroke="rgba(153, 50, 204, 1)" stroke-width="1.5"></path><path d="M644.39 698.79L797.11 708.19" stroke="rgba(153, 50, 204, 1)" stroke-width="1.5"></path><path d="M644.39 698.79L677.36 506.08" stroke="rgba(153, 50, 204, 1)" stroke-width="1.5"></path><path d="M821.44 501.66L821.44 501.66" stroke="rgba(153, 50, 204, 1)" stroke-width="1.5"></path><path d="M821.44 501.66L937.84 374.98" stroke="rgba(153, 50, 204, 1)" stroke-width="1.5"></path><path d="M821.44 501.66L940.98 645.22" stroke="rgba(153, 50, 204, 1)" stroke-width="1.5"></path><path d="M821.44 501.66L1006.02 557.46" stroke="rgba(153, 50, 204, 1)" stroke-width="1.5"></path><path d="M821.44 501.66L797.11 708.19" stroke="rgba(153, 50, 204, 1)" stroke-width="1.5"></path><path d="M821.44 501.66L644.39 698.79" stroke="rgba(153, 50, 204, 1)" stroke-width="1.5"></path><path d="M797.11 708.19L797.11 708.19" stroke="rgba(153, 50, 204, 1)" stroke-width="1.5"></path><path d="M797.11 708.19L940.98 645.22" stroke="rgba(153, 50, 204, 1)" stroke-width="1.5"></path><path d="M797.11 708.19L677.36 506.08" stroke="rgba(153, 50, 204, 1)" stroke-width="1.5"></path><path d="M797.11 708.19L1006.02 557.46" stroke="rgba(153, 50, 204, 1)" stroke-width="1.5"></path><path d="M982.23 -83.34L982.23 -83.34" stroke="rgba(153, 50, 204, 1)" stroke-width="1.5"></path><path d="M982.23 -83.34L1089.09 -53.08" stroke="rgba(153, 50, 204, 1)" stroke-width="1.5"></path><path d="M982.23 -83.34L991.55 70.29" stroke="rgba(153, 50, 204, 1)" stroke-width="1.5"></path><path d="M982.23 -83.34L1157.05 71.71" stroke="rgba(153, 50, 204, 1)" stroke-width="1.5"></path><path d="M982.23 -83.34L1239.69 -46.85" stroke="rgba(153, 50, 204, 1)" stroke-width="1.5"></path><path d="M991.55 70.29L991.55 70.29" stroke="rgba(153, 50, 204, 1)" stroke-width="1.5"></path><path d="M991.55 70.29L1089.09 -53.08" stroke="rgba(153, 50, 204, 1)" stroke-width="1.5"></path><path d="M991.55 70.29L1098 188.48" stroke="rgba(153, 50, 204, 1)" stroke-width="1.5"></path><path d="M953.54 241.46L953.54 241.46" stroke="rgba(153, 50, 204, 1)" stroke-width="1.5"></path><path d="M953.54 241.46L937.84 374.98" stroke="rgba(153, 50, 204, 1)" stroke-width="1.5"></path><path d="M953.54 241.46L1098 188.48" stroke="rgba(153, 50, 204, 1)" stroke-width="1.5"></path><path d="M953.54 241.46L991.55 70.29" stroke="rgba(153, 50, 204, 1)" stroke-width="1.5"></path><path d="M953.54 241.46L1106.33 382.79" stroke="rgba(153, 50, 204, 1)" stroke-width="1.5"></path><path d="M953.54 241.46L1157.05 71.71" stroke="rgba(153, 50, 204, 1)" stroke-width="1.5"></path><path d="M937.84 374.98L937.84 374.98" stroke="rgba(153, 50, 204, 1)" stroke-width="1.5"></path><path d="M937.84 374.98L1106.33 382.79" stroke="rgba(153, 50, 204, 1)" stroke-width="1.5"></path><path d="M937.84 374.98L1006.02 557.46" stroke="rgba(153, 50, 204, 1)" stroke-width="1.5"></path><path d="M937.84 374.98L1098 188.48" stroke="rgba(153, 50, 204, 1)" stroke-width="1.5"></path><path d="M937.84 374.98L1127.88 551.07" stroke="rgba(153, 50, 204, 1)" stroke-width="1.5"></path><path d="M1006.02 557.46L1006.02 557.46" stroke="rgba(153, 50, 204, 1)" stroke-width="1.5"></path><path d="M1006.02 557.46L940.98 645.22" stroke="rgba(153, 50, 204, 1)" stroke-width="1.5"></path><path d="M1006.02 557.46L1127.88 551.07" stroke="rgba(153, 50, 204, 1)" stroke-width="1.5"></path><path d="M1006.02 557.46L1141.15 670.84" stroke="rgba(153, 50, 204, 1)" stroke-width="1.5"></path><path d="M940.98 645.22L940.98 645.22" stroke="rgba(153, 50, 204, 1)" stroke-width="1.5"></path><path d="M940.98 645.22L1141.15 670.84" stroke="rgba(153, 50, 204, 1)" stroke-width="1.5"></path><path d="M940.98 645.22L1127.88 551.07" stroke="rgba(153, 50, 204, 1)" stroke-width="1.5"></path><path d="M1089.09 -53.08L1089.09 -53.08" stroke="rgba(153, 50, 204, 1)" stroke-width="1.5"></path><path d="M1089.09 -53.08L1157.05 71.71" stroke="rgba(153, 50, 204, 1)" stroke-width="1.5"></path><path d="M1089.09 -53.08L1239.69 -46.85" stroke="rgba(153, 50, 204, 1)" stroke-width="1.5"></path><path d="M1089.09 -53.08L1245.48 67.19" stroke="rgba(153, 50, 204, 1)" stroke-width="1.5"></path><path d="M1157.05 71.71L1157.05 71.71" stroke="rgba(153, 50, 204, 1)" stroke-width="1.5"></path><path d="M1157.05 71.71L1245.48 67.19" stroke="rgba(153, 50, 204, 1)" stroke-width="1.5"></path><path d="M1098 188.48L1098 188.48" stroke="rgba(153, 50, 204, 1)" stroke-width="1.5"></path><path d="M1098 188.48L1157.05 71.71" stroke="rgba(153, 50, 204, 1)" stroke-width="1.5"></path><path d="M1098 188.48L1245.48 67.19" stroke="rgba(153, 50, 204, 1)" stroke-width="1.5"></path><path d="M1106.33 382.79L1106.33 382.79" stroke="rgba(153, 50, 204, 1)" stroke-width="1.5"></path><path d="M1106.33 382.79L1237.92 361.96" stroke="rgba(153, 50, 204, 1)" stroke-width="1.5"></path><path d="M1127.88 551.07L1127.88 551.07" stroke="rgba(153, 50, 204, 1)" stroke-width="1.5"></path><path d="M1127.88 551.07L1141.15 670.84" stroke="rgba(153, 50, 204, 1)" stroke-width="1.5"></path><path d="M1127.88 551.07L1282.07 532.81" stroke="rgba(153, 50, 204, 1)" stroke-width="1.5"></path><path d="M1127.88 551.07L1106.33 382.79" stroke="rgba(153, 50, 204, 1)" stroke-width="1.5"></path><path d="M1141.15 670.84L1141.15 670.84" stroke="rgba(153, 50, 204, 1)" stroke-width="1.5"></path><path d="M1141.15 670.84L1307.75 689.36" stroke="rgba(153, 50, 204, 1)" stroke-width="1.5"></path><path d="M1141.15 670.84L1282.07 532.81" stroke="rgba(153, 50, 204, 1)" stroke-width="1.5"></path><path d="M1141.15 670.84L1422.95 655.04" stroke="rgba(153, 50, 204, 1)" stroke-width="1.5"></path><path d="M1239.69 -46.85L1239.69 -46.85" stroke="rgba(153, 50, 204, 1)" stroke-width="1.5"></path><path d="M1239.69 -46.85L1245.48 67.19" stroke="rgba(153, 50, 204, 1)" stroke-width="1.5"></path><path d="M1239.69 -46.85L1157.05 71.71" stroke="rgba(153, 50, 204, 1)" stroke-width="1.5"></path><path d="M1239.69 -46.85L1431.72 -66.79" stroke="rgba(153, 50, 204, 1)" stroke-width="1.5"></path><path d="M1245.48 67.19L1245.48 67.19" stroke="rgba(153, 50, 204, 1)" stroke-width="1.5"></path><path d="M1245.48 67.19L1301.47 201.3" stroke="rgba(153, 50, 204, 1)" stroke-width="1.5"></path><path d="M1301.47 201.3L1301.47 201.3" stroke="rgba(153, 50, 204, 1)" stroke-width="1.5"></path><path d="M1301.47 201.3L1441.57 188.49" stroke="rgba(153, 50, 204, 1)" stroke-width="1.5"></path><path d="M1301.47 201.3L1237.92 361.96" stroke="rgba(153, 50, 204, 1)" stroke-width="1.5"></path><path d="M1301.47 201.3L1458.04 102.26" stroke="rgba(153, 50, 204, 1)" stroke-width="1.5"></path><path d="M1301.47 201.3L1434.8 340.93" stroke="rgba(153, 50, 204, 1)" stroke-width="1.5"></path><path d="M1301.47 201.3L1157.05 71.71" stroke="rgba(153, 50, 204, 1)" stroke-width="1.5"></path><path d="M1237.92 361.96L1237.92 361.96" stroke="rgba(153, 50, 204, 1)" stroke-width="1.5"></path><path d="M1237.92 361.96L1282.07 532.81" stroke="rgba(153, 50, 204, 1)" stroke-width="1.5"></path><path d="M1237.92 361.96L1434.8 340.93" stroke="rgba(153, 50, 204, 1)" stroke-width="1.5"></path><path d="M1237.92 361.96L1127.88 551.07" stroke="rgba(153, 50, 204, 1)" stroke-width="1.5"></path><path d="M1282.07 532.81L1282.07 532.81" stroke="rgba(153, 50, 204, 1)" stroke-width="1.5"></path><path d="M1282.07 532.81L1307.75 689.36" stroke="rgba(153, 50, 204, 1)" stroke-width="1.5"></path><path d="M1282.07 532.81L1446.16 509.31" stroke="rgba(153, 50, 204, 1)" stroke-width="1.5"></path><path d="M1282.07 532.81L1422.95 655.04" stroke="rgba(153, 50, 204, 1)" stroke-width="1.5"></path><path d="M1307.75 689.36L1307.75 689.36" stroke="rgba(153, 50, 204, 1)" stroke-width="1.5"></path><path d="M1307.75 689.36L1422.95 655.04" stroke="rgba(153, 50, 204, 1)" stroke-width="1.5"></path><path d="M1431.72 -66.79L1431.72 -66.79" stroke="rgba(153, 50, 204, 1)" stroke-width="1.5"></path><path d="M1431.72 -66.79L1547.88 -51.95" stroke="rgba(153, 50, 204, 1)" stroke-width="1.5"></path><path d="M1431.72 -66.79L1458.04 102.26" stroke="rgba(153, 50, 204, 1)" stroke-width="1.5"></path><path d="M1458.04 102.26L1458.04 102.26" stroke="rgba(153, 50, 204, 1)" stroke-width="1.5"></path><path d="M1458.04 102.26L1441.57 188.49" stroke="rgba(153, 50, 204, 1)" stroke-width="1.5"></path><path d="M1458.04 102.26L1605.85 88.18" stroke="rgba(153, 50, 204, 1)" stroke-width="1.5"></path><path d="M1458.04 102.26L1547.88 -51.95" stroke="rgba(153, 50, 204, 1)" stroke-width="1.5"></path><path d="M1458.04 102.26L1597.95 217.17" stroke="rgba(153, 50, 204, 1)" stroke-width="1.5"></path><path d="M1441.57 188.49L1441.57 188.49" stroke="rgba(153, 50, 204, 1)" stroke-width="1.5"></path><path d="M1434.8 340.93L1434.8 340.93" stroke="rgba(153, 50, 204, 1)" stroke-width="1.5"></path><path d="M1434.8 340.93L1441.57 188.49" stroke="rgba(153, 50, 204, 1)" stroke-width="1.5"></path><path d="M1434.8 340.93L1446.16 509.31" stroke="rgba(153, 50, 204, 1)" stroke-width="1.5"></path><path d="M1434.8 340.93L1591.15 411.47" stroke="rgba(153, 50, 204, 1)" stroke-width="1.5"></path><path d="M1434.8 340.93L1597.95 217.17" stroke="rgba(153, 50, 204, 1)" stroke-width="1.5"></path><path d="M1446.16 509.31L1446.16 509.31" stroke="rgba(153, 50, 204, 1)" stroke-width="1.5"></path><path d="M1446.16 509.31L1561.01 555.01" stroke="rgba(153, 50, 204, 1)" stroke-width="1.5"></path><path d="M1446.16 509.31L1422.95 655.04" stroke="rgba(153, 50, 204, 1)" stroke-width="1.5"></path><path d="M1422.95 655.04L1422.95 655.04" stroke="rgba(153, 50, 204, 1)" stroke-width="1.5"></path><path d="M1422.95 655.04L1561.01 555.01" stroke="rgba(153, 50, 204, 1)" stroke-width="1.5"></path><path d="M1422.95 655.04L1599.74 694.56" stroke="rgba(153, 50, 204, 1)" stroke-width="1.5"></path><path d="M1547.88 -51.95L1547.88 -51.95" stroke="rgba(153, 50, 204, 1)" stroke-width="1.5"></path><path d="M1547.88 -51.95L1605.85 88.18" stroke="rgba(153, 50, 204, 1)" stroke-width="1.5"></path><path d="M1605.85 88.18L1605.85 88.18" stroke="rgba(153, 50, 204, 1)" stroke-width="1.5"></path><path d="M1605.85 88.18L1597.95 217.17" stroke="rgba(153, 50, 204, 1)" stroke-width="1.5"></path><path d="M1597.95 217.17L1597.95 217.17" stroke="rgba(153, 50, 204, 1)" stroke-width="1.5"></path><path d="M1597.95 217.17L1441.57 188.49" stroke="rgba(153, 50, 204, 1)" stroke-width="1.5"></path><path d="M1591.15 411.47L1591.15 411.47" stroke="rgba(153, 50, 204, 1)" stroke-width="1.5"></path><path d="M1591.15 411.47L1561.01 555.01" stroke="rgba(153, 50, 204, 1)" stroke-width="1.5"></path><path d="M1561.01 555.01L1561.01 555.01" stroke="rgba(153, 50, 204, 1)" stroke-width="1.5"></path><path d="M1561.01 555.01L1599.74 694.56" stroke="rgba(153, 50, 204, 1)" stroke-width="1.5"></path><path d="M1599.74 694.56L1599.74 694.56" stroke="rgba(153, 50, 204, 1)" stroke-width="1.5"></path><path d="M1599.74 694.56L1446.16 509.31" stroke="rgba(153, 50, 204, 1)" stroke-width="1.5"></path><path d="M1599.74 694.56L1591.15 411.47" stroke="rgba(153, 50, 204, 1)" stroke-width="1.5"></path><circle r="5" cx="-84.77" cy="403.93" fill="rgba(153, 50, 204, 1)"></circle><circle r="5" cx="-75.04" cy="705.47" fill="rgba(153, 50, 204, 1)"></circle><circle r="5" cx="65.6" cy="504.36" fill="rgba(153, 50, 204, 1)"></circle><circle r="5" cx="75.87" cy="638.3" fill="rgba(153, 50, 204, 1)"></circle><circle r="5" cx="234.05" cy="344.43" fill="rgba(153, 50, 204, 1)"></circle><circle r="5" cx="213.95" cy="541.51" fill="rgba(153, 50, 204, 1)"></circle><circle r="5" cx="206.65" cy="657.12" fill="rgba(153, 50, 204, 1)"></circle><circle r="5" cx="371.74" cy="388.75" fill="rgba(153, 50, 204, 1)"></circle><circle r="5" cx="343.08" cy="543.77" fill="rgba(153, 50, 204, 1)"></circle><circle r="5" cx="338.24" cy="697.5" fill="rgba(153, 50, 204, 1)"></circle><circle r="5" cx="489.6" cy="407.83" fill="rgba(153, 50, 204, 1)"></circle><circle r="5" cx="502.83" cy="516.18" fill="rgba(153, 50, 204, 1)"></circle><circle r="5" cx="516" cy="709.2" fill="rgba(153, 50, 204, 1)"></circle><circle r="5" cx="693.76" cy="201.43" fill="rgba(153, 50, 204, 1)"></circle><circle r="5" cx="677.36" cy="506.08" fill="rgba(153, 50, 204, 1)"></circle><circle r="5" cx="644.39" cy="698.79" fill="rgba(153, 50, 204, 1)"></circle><circle r="5" cx="821.44" cy="501.66" fill="rgba(153, 50, 204, 1)"></circle><circle r="5" cx="797.11" cy="708.19" fill="rgba(153, 50, 204, 1)"></circle><circle r="5" cx="982.23" cy="-83.34" fill="rgba(153, 50, 204, 1)"></circle><circle r="5" cx="991.55" cy="70.29" fill="rgba(153, 50, 204, 1)"></circle><circle r="5" cx="953.54" cy="241.46" fill="rgba(153, 50, 204, 1)"></circle><circle r="5" cx="937.84" cy="374.98" fill="rgba(153, 50, 204, 1)"></circle><circle r="5" cx="1006.02" cy="557.46" fill="rgba(153, 50, 204, 1)"></circle><circle r="5" cx="940.98" cy="645.22" fill="rgba(153, 50, 204, 1)"></circle><circle r="5" cx="1089.09" cy="-53.08" fill="rgba(153, 50, 204, 1)"></circle><circle r="5" cx="1157.05" cy="71.71" fill="rgba(153, 50, 204, 1)"></circle><circle r="5" cx="1098" cy="188.48" fill="rgba(153, 50, 204, 1)"></circle><circle r="5" cx="1106.33" cy="382.79" fill="rgba(153, 50, 204, 1)"></circle><circle r="5" cx="1127.88" cy="551.07" fill="rgba(153, 50, 204, 1)"></circle><circle r="5" cx="1141.15" cy="670.84" fill="rgba(153, 50, 204, 1)"></circle><circle r="5" cx="1239.69" cy="-46.85" fill="rgba(153, 50, 204, 1)"></circle><circle r="5" cx="1245.48" cy="67.19" fill="rgba(153, 50, 204, 1)"></circle><circle r="5" cx="1301.47" cy="201.3" fill="rgba(153, 50, 204, 1)"></circle><circle r="5" cx="1237.92" cy="361.96" fill="rgba(153, 50, 204, 1)"></circle><circle r="5" cx="1282.07" cy="532.81" fill="rgba(153, 50, 204, 1)"></circle><circle r="5" cx="1307.75" cy="689.36" fill="rgba(153, 50, 204, 1)"></circle><circle r="5" cx="1431.72" cy="-66.79" fill="rgba(153, 50, 204, 1)"></circle><circle r="5" cx="1458.04" cy="102.26" fill="rgba(153, 50, 204, 1)"></circle><circle r="5" cx="1441.57" cy="188.49" fill="rgba(153, 50, 204, 1)"></circle><circle r="5" cx="1434.8" cy="340.93" fill="rgba(153, 50, 204, 1)"></circle><circle r="5" cx="1446.16" cy="509.31" fill="rgba(153, 50, 204, 1)"></circle><circle r="5" cx="1422.95" cy="655.04" fill="rgba(153, 50, 204, 1)"></circle><circle r="5" cx="1547.88" cy="-51.95" fill="rgba(153, 50, 204, 1)"></circle><circle r="5" cx="1605.85" cy="88.18" fill="rgba(153, 50, 204, 1)"></circle><circle r="5" cx="1597.95" cy="217.17" fill="rgba(153, 50, 204, 1)"></circle><circle r="5" cx="1591.15" cy="411.47" fill="rgba(153, 50, 204, 1)"></circle><circle r="5" cx="1561.01" cy="555.01" fill="rgba(153, 50, 204, 1)"></circle><circle r="5" cx="1599.74" cy="694.56" fill="rgba(153, 50, 204, 1)"></circle><path d="M-106.39 700.88L-106.39 700.88" stroke="hsl(280.1, 60.6%, 64.7%)" stroke-width="1.5"></path><path d="M-106.39 700.88L48.05 671.9" stroke="hsl(280.1, 60.6%, 64.7%)" stroke-width="1.5"></path><path d="M490.34 542.04L490.34 542.04" stroke="hsl(280.1, 60.6%, 64.7%)" stroke-width="1.5"></path><path d="M490.34 542.04L406.88 526.15" stroke="hsl(280.1, 60.6%, 64.7%)" stroke-width="1.5"></path><path d="M490.34 542.04L660.71 505.99" stroke="hsl(280.1, 60.6%, 64.7%)" stroke-width="1.5"></path><path d="M490.34 542.04L555.88 703.52" stroke="hsl(280.1, 60.6%, 64.7%)" stroke-width="1.5"></path><path d="M490.34 542.04L404.66 711.09" stroke="hsl(280.1, 60.6%, 64.7%)" stroke-width="1.5"></path><path d="M490.34 542.04L689.92 679.98" stroke="hsl(280.1, 60.6%, 64.7%)" stroke-width="1.5"></path><path d="M490.34 542.04L235.91 551.46" stroke="hsl(280.1, 60.6%, 64.7%)" stroke-width="1.5"></path><path d="M847.11 339.11L847.11 339.11" stroke="hsl(280.1, 60.6%, 64.7%)" stroke-width="1.5"></path><path d="M847.11 339.11L987.66 400.16" stroke="hsl(280.1, 60.6%, 64.7%)" stroke-width="1.5"></path><path d="M847.11 339.11L953.99 489.17" stroke="hsl(280.1, 60.6%, 64.7%)" stroke-width="1.5"></path><path d="M847.11 339.11L789.62 559.21" stroke="hsl(280.1, 60.6%, 64.7%)" stroke-width="1.5"></path><path d="M847.11 339.11L660.71 505.99" stroke="hsl(280.1, 60.6%, 64.7%)" stroke-width="1.5"></path><path d="M953.99 489.17L953.99 489.17" stroke="hsl(280.1, 60.6%, 64.7%)" stroke-width="1.5"></path><path d="M953.99 489.17L987.66 400.16" stroke="hsl(280.1, 60.6%, 64.7%)" stroke-width="1.5"></path><path d="M953.99 489.17L942.41 639.46" stroke="hsl(280.1, 60.6%, 64.7%)" stroke-width="1.5"></path><path d="M953.99 489.17L1104.09 549.62" stroke="hsl(280.1, 60.6%, 64.7%)" stroke-width="1.5"></path><path d="M953.99 489.17L789.62 559.21" stroke="hsl(280.1, 60.6%, 64.7%)" stroke-width="1.5"></path><path d="M1104.09 549.62L1104.09 549.62" stroke="hsl(280.1, 60.6%, 64.7%)" stroke-width="1.5"></path><path d="M1104.09 549.62L1161.27 663.72" stroke="hsl(280.1, 60.6%, 64.7%)" stroke-width="1.5"></path><path d="M1104.09 549.62L1260.8 534.95" stroke="hsl(280.1, 60.6%, 64.7%)" stroke-width="1.5"></path><path d="M1104.09 549.62L942.41 639.46" stroke="hsl(280.1, 60.6%, 64.7%)" stroke-width="1.5"></path><path d="M1104.09 549.62L987.66 400.16" stroke="hsl(280.1, 60.6%, 64.7%)" stroke-width="1.5"></path><path d="M1260.8 534.95L1260.8 534.95" stroke="hsl(280.1, 60.6%, 64.7%)" stroke-width="1.5"></path><path d="M1260.8 534.95L1281.04 650.08" stroke="hsl(280.1, 60.6%, 64.7%)" stroke-width="1.5"></path><path d="M1260.8 534.95L1262.38 392.35" stroke="hsl(280.1, 60.6%, 64.7%)" stroke-width="1.5"></path><path d="M1260.8 534.95L1161.27 663.72" stroke="hsl(280.1, 60.6%, 64.7%)" stroke-width="1.5"></path><path d="M1417.45 244.83L1417.45 244.83" stroke="hsl(280.1, 60.6%, 64.7%)" stroke-width="1.5"></path><path d="M1417.45 244.83L1419.45 390.27" stroke="hsl(280.1, 60.6%, 64.7%)" stroke-width="1.5"></path><path d="M1417.45 244.83L1427.17 84.13" stroke="hsl(280.1, 60.6%, 64.7%)" stroke-width="1.5"></path><path d="M1417.45 244.83L1246.79 210.04" stroke="hsl(280.1, 60.6%, 64.7%)" stroke-width="1.5"></path><path d="M1417.45 244.83L1588.85 198.86" stroke="hsl(280.1, 60.6%, 64.7%)" stroke-width="1.5"></path><path d="M1417.45 244.83L1309.14 60.85" stroke="hsl(280.1, 60.6%, 64.7%)" stroke-width="1.5"></path><path d="M1417.45 244.83L1262.38 392.35" stroke="hsl(280.1, 60.6%, 64.7%)" stroke-width="1.5"></path><path d="M1588.85 198.86L1588.85 198.86" stroke="hsl(280.1, 60.6%, 64.7%)" stroke-width="1.5"></path><path d="M1588.85 198.86L1566.59 62.91" stroke="hsl(280.1, 60.6%, 64.7%)" stroke-width="1.5"></path><path d="M1588.85 198.86L1612.3 380.42" stroke="hsl(280.1, 60.6%, 64.7%)" stroke-width="1.5"></path><path d="M1588.85 198.86L1427.17 84.13" stroke="hsl(280.1, 60.6%, 64.7%)" stroke-width="1.5"></path><path d="M1588.85 198.86L1419.45 390.27" stroke="hsl(280.1, 60.6%, 64.7%)" stroke-width="1.5"></path><path d="M-45.63 520.55L-45.63 520.55" stroke="hsl(280.1, 60.6%, 64.7%)" stroke-width="1.5"></path><path d="M-45.63 520.55L87.72 556.91" stroke="hsl(280.1, 60.6%, 64.7%)" stroke-width="1.5"></path><path d="M-45.63 520.55L48.05 671.9" stroke="hsl(280.1, 60.6%, 64.7%)" stroke-width="1.5"></path><path d="M-45.63 520.55L-106.39 700.88" stroke="hsl(280.1, 60.6%, 64.7%)" stroke-width="1.5"></path><path d="M-45.63 520.55L235.91 551.46" stroke="hsl(280.1, 60.6%, 64.7%)" stroke-width="1.5"></path><path d="M-45.63 520.55L211.63 656.91" stroke="hsl(280.1, 60.6%, 64.7%)" stroke-width="1.5"></path><path d="M-45.63 520.55L406.88 526.15" stroke="hsl(280.1, 60.6%, 64.7%)" stroke-width="1.5"></path><path d="M87.72 556.91L87.72 556.91" stroke="hsl(280.1, 60.6%, 64.7%)" stroke-width="1.5"></path><path d="M87.72 556.91L48.05 671.9" stroke="hsl(280.1, 60.6%, 64.7%)" stroke-width="1.5"></path><path d="M87.72 556.91L235.91 551.46" stroke="hsl(280.1, 60.6%, 64.7%)" stroke-width="1.5"></path><path d="M48.05 671.9L48.05 671.9" stroke="hsl(280.1, 60.6%, 64.7%)" stroke-width="1.5"></path><path d="M235.91 551.46L235.91 551.46" stroke="hsl(280.1, 60.6%, 64.7%)" stroke-width="1.5"></path><path d="M235.91 551.46L211.63 656.91" stroke="hsl(280.1, 60.6%, 64.7%)" stroke-width="1.5"></path><path d="M235.91 551.46L406.88 526.15" stroke="hsl(280.1, 60.6%, 64.7%)" stroke-width="1.5"></path><path d="M235.91 551.46L48.05 671.9" stroke="hsl(280.1, 60.6%, 64.7%)" stroke-width="1.5"></path><path d="M235.91 551.46L404.66 711.09" stroke="hsl(280.1, 60.6%, 64.7%)" stroke-width="1.5"></path><path d="M211.63 656.91L211.63 656.91" stroke="hsl(280.1, 60.6%, 64.7%)" stroke-width="1.5"></path><path d="M211.63 656.91L87.72 556.91" stroke="hsl(280.1, 60.6%, 64.7%)" stroke-width="1.5"></path><path d="M211.63 656.91L48.05 671.9" stroke="hsl(280.1, 60.6%, 64.7%)" stroke-width="1.5"></path><path d="M211.63 656.91L404.66 711.09" stroke="hsl(280.1, 60.6%, 64.7%)" stroke-width="1.5"></path><path d="M211.63 656.91L406.88 526.15" stroke="hsl(280.1, 60.6%, 64.7%)" stroke-width="1.5"></path><path d="M406.88 526.15L406.88 526.15" stroke="hsl(280.1, 60.6%, 64.7%)" stroke-width="1.5"></path><path d="M406.88 526.15L404.66 711.09" stroke="hsl(280.1, 60.6%, 64.7%)" stroke-width="1.5"></path><path d="M406.88 526.15L555.88 703.52" stroke="hsl(280.1, 60.6%, 64.7%)" stroke-width="1.5"></path><path d="M406.88 526.15L660.71 505.99" stroke="hsl(280.1, 60.6%, 64.7%)" stroke-width="1.5"></path><path d="M404.66 711.09L404.66 711.09" stroke="hsl(280.1, 60.6%, 64.7%)" stroke-width="1.5"></path><path d="M404.66 711.09L555.88 703.52" stroke="hsl(280.1, 60.6%, 64.7%)" stroke-width="1.5"></path><path d="M555.88 703.52L555.88 703.52" stroke="hsl(280.1, 60.6%, 64.7%)" stroke-width="1.5"></path><path d="M555.88 703.52L689.92 679.98" stroke="hsl(280.1, 60.6%, 64.7%)" stroke-width="1.5"></path><path d="M660.71 505.99L660.71 505.99" stroke="hsl(280.1, 60.6%, 64.7%)" stroke-width="1.5"></path><path d="M660.71 505.99L789.62 559.21" stroke="hsl(280.1, 60.6%, 64.7%)" stroke-width="1.5"></path><path d="M660.71 505.99L689.92 679.98" stroke="hsl(280.1, 60.6%, 64.7%)" stroke-width="1.5"></path><path d="M660.71 505.99L555.88 703.52" stroke="hsl(280.1, 60.6%, 64.7%)" stroke-width="1.5"></path><path d="M660.71 505.99L826.93 689.93" stroke="hsl(280.1, 60.6%, 64.7%)" stroke-width="1.5"></path><path d="M689.92 679.98L689.92 679.98" stroke="hsl(280.1, 60.6%, 64.7%)" stroke-width="1.5"></path><path d="M689.92 679.98L826.93 689.93" stroke="hsl(280.1, 60.6%, 64.7%)" stroke-width="1.5"></path><path d="M689.92 679.98L789.62 559.21" stroke="hsl(280.1, 60.6%, 64.7%)" stroke-width="1.5"></path><path d="M789.62 559.21L789.62 559.21" stroke="hsl(280.1, 60.6%, 64.7%)" stroke-width="1.5"></path><path d="M789.62 559.21L826.93 689.93" stroke="hsl(280.1, 60.6%, 64.7%)" stroke-width="1.5"></path><path d="M826.93 689.93L826.93 689.93" stroke="hsl(280.1, 60.6%, 64.7%)" stroke-width="1.5"></path><path d="M826.93 689.93L942.41 639.46" stroke="hsl(280.1, 60.6%, 64.7%)" stroke-width="1.5"></path><path d="M826.93 689.93L953.99 489.17" stroke="hsl(280.1, 60.6%, 64.7%)" stroke-width="1.5"></path><path d="M987.66 400.16L987.66 400.16" stroke="hsl(280.1, 60.6%, 64.7%)" stroke-width="1.5"></path><path d="M987.66 400.16L1129.37 347.24" stroke="hsl(280.1, 60.6%, 64.7%)" stroke-width="1.5"></path><path d="M942.41 639.46L942.41 639.46" stroke="hsl(280.1, 60.6%, 64.7%)" stroke-width="1.5"></path><path d="M942.41 639.46L789.62 559.21" stroke="hsl(280.1, 60.6%, 64.7%)" stroke-width="1.5"></path><path d="M942.41 639.46L1161.27 663.72" stroke="hsl(280.1, 60.6%, 64.7%)" stroke-width="1.5"></path><path d="M1135.34 109.14L1135.34 109.14" stroke="hsl(280.1, 60.6%, 64.7%)" stroke-width="1.5"></path><path d="M1135.34 109.14L1129.56 234.36" stroke="hsl(280.1, 60.6%, 64.7%)" stroke-width="1.5"></path><path d="M1135.34 109.14L1246.79 210.04" stroke="hsl(280.1, 60.6%, 64.7%)" stroke-width="1.5"></path><path d="M1135.34 109.14L1309.14 60.85" stroke="hsl(280.1, 60.6%, 64.7%)" stroke-width="1.5"></path><path d="M1135.34 109.14L1129.37 347.24" stroke="hsl(280.1, 60.6%, 64.7%)" stroke-width="1.5"></path><path d="M1135.34 109.14L1303.81 -63.84" stroke="hsl(280.1, 60.6%, 64.7%)" stroke-width="1.5"></path><path d="M1129.56 234.36L1129.56 234.36" stroke="hsl(280.1, 60.6%, 64.7%)" stroke-width="1.5"></path><path d="M1129.56 234.36L1129.37 347.24" stroke="hsl(280.1, 60.6%, 64.7%)" stroke-width="1.5"></path><path d="M1129.56 234.36L1246.79 210.04" stroke="hsl(280.1, 60.6%, 64.7%)" stroke-width="1.5"></path><path d="M1129.56 234.36L1262.38 392.35" stroke="hsl(280.1, 60.6%, 64.7%)" stroke-width="1.5"></path><path d="M1129.37 347.24L1129.37 347.24" stroke="hsl(280.1, 60.6%, 64.7%)" stroke-width="1.5"></path><path d="M1129.37 347.24L1262.38 392.35" stroke="hsl(280.1, 60.6%, 64.7%)" stroke-width="1.5"></path><path d="M1161.27 663.72L1161.27 663.72" stroke="hsl(280.1, 60.6%, 64.7%)" stroke-width="1.5"></path><path d="M1161.27 663.72L1281.04 650.08" stroke="hsl(280.1, 60.6%, 64.7%)" stroke-width="1.5"></path><path d="M1161.27 663.72L953.99 489.17" stroke="hsl(280.1, 60.6%, 64.7%)" stroke-width="1.5"></path><path d="M1303.81 -63.84L1303.81 -63.84" stroke="hsl(280.1, 60.6%, 64.7%)" stroke-width="1.5"></path><path d="M1303.81 -63.84L1399.88 -92.07" stroke="hsl(280.1, 60.6%, 64.7%)" stroke-width="1.5"></path><path d="M1303.81 -63.84L1309.14 60.85" stroke="hsl(280.1, 60.6%, 64.7%)" stroke-width="1.5"></path><path d="M1303.81 -63.84L1427.17 84.13" stroke="hsl(280.1, 60.6%, 64.7%)" stroke-width="1.5"></path><path d="M1303.81 -63.84L1582.1 -68.58" stroke="hsl(280.1, 60.6%, 64.7%)" stroke-width="1.5"></path><path d="M1303.81 -63.84L1246.79 210.04" stroke="hsl(280.1, 60.6%, 64.7%)" stroke-width="1.5"></path><path d="M1309.14 60.85L1309.14 60.85" stroke="hsl(280.1, 60.6%, 64.7%)" stroke-width="1.5"></path><path d="M1309.14 60.85L1427.17 84.13" stroke="hsl(280.1, 60.6%, 64.7%)" stroke-width="1.5"></path><path d="M1309.14 60.85L1246.79 210.04" stroke="hsl(280.1, 60.6%, 64.7%)" stroke-width="1.5"></path><path d="M1309.14 60.85L1399.88 -92.07" stroke="hsl(280.1, 60.6%, 64.7%)" stroke-width="1.5"></path><path d="M1246.79 210.04L1246.79 210.04" stroke="hsl(280.1, 60.6%, 64.7%)" stroke-width="1.5"></path><path d="M1262.38 392.35L1262.38 392.35" stroke="hsl(280.1, 60.6%, 64.7%)" stroke-width="1.5"></path><path d="M1262.38 392.35L1419.45 390.27" stroke="hsl(280.1, 60.6%, 64.7%)" stroke-width="1.5"></path><path d="M1281.04 650.08L1281.04 650.08" stroke="hsl(280.1, 60.6%, 64.7%)" stroke-width="1.5"></path><path d="M1399.88 -92.07L1399.88 -92.07" stroke="hsl(280.1, 60.6%, 64.7%)" stroke-width="1.5"></path><path d="M1399.88 -92.07L1427.17 84.13" stroke="hsl(280.1, 60.6%, 64.7%)" stroke-width="1.5"></path><path d="M1399.88 -92.07L1582.1 -68.58" stroke="hsl(280.1, 60.6%, 64.7%)" stroke-width="1.5"></path><path d="M1399.88 -92.07L1566.59 62.91" stroke="hsl(280.1, 60.6%, 64.7%)" stroke-width="1.5"></path><path d="M1427.17 84.13L1427.17 84.13" stroke="hsl(280.1, 60.6%, 64.7%)" stroke-width="1.5"></path><path d="M1427.17 84.13L1566.59 62.91" stroke="hsl(280.1, 60.6%, 64.7%)" stroke-width="1.5"></path><path d="M1419.45 390.27L1419.45 390.27" stroke="hsl(280.1, 60.6%, 64.7%)" stroke-width="1.5"></path><path d="M1419.45 390.27L1445.23 559.94" stroke="hsl(280.1, 60.6%, 64.7%)" stroke-width="1.5"></path><path d="M1445.23 559.94L1445.23 559.94" stroke="hsl(280.1, 60.6%, 64.7%)" stroke-width="1.5"></path><path d="M1445.23 559.94L1454.24 675.8" stroke="hsl(280.1, 60.6%, 64.7%)" stroke-width="1.5"></path><path d="M1445.23 559.94L1574.04 536.6" stroke="hsl(280.1, 60.6%, 64.7%)" stroke-width="1.5"></path><path d="M1445.23 559.94L1602.53 658.94" stroke="hsl(280.1, 60.6%, 64.7%)" stroke-width="1.5"></path><path d="M1445.23 559.94L1260.8 534.95" stroke="hsl(280.1, 60.6%, 64.7%)" stroke-width="1.5"></path><path d="M1454.24 675.8L1454.24 675.8" stroke="hsl(280.1, 60.6%, 64.7%)" stroke-width="1.5"></path><path d="M1454.24 675.8L1602.53 658.94" stroke="hsl(280.1, 60.6%, 64.7%)" stroke-width="1.5"></path><path d="M1454.24 675.8L1281.04 650.08" stroke="hsl(280.1, 60.6%, 64.7%)" stroke-width="1.5"></path><path d="M1454.24 675.8L1574.04 536.6" stroke="hsl(280.1, 60.6%, 64.7%)" stroke-width="1.5"></path><path d="M1454.24 675.8L1260.8 534.95" stroke="hsl(280.1, 60.6%, 64.7%)" stroke-width="1.5"></path><path d="M1454.24 675.8L1419.45 390.27" stroke="hsl(280.1, 60.6%, 64.7%)" stroke-width="1.5"></path><path d="M1582.1 -68.58L1582.1 -68.58" stroke="hsl(280.1, 60.6%, 64.7%)" stroke-width="1.5"></path><path d="M1582.1 -68.58L1566.59 62.91" stroke="hsl(280.1, 60.6%, 64.7%)" stroke-width="1.5"></path><path d="M1566.59 62.91L1566.59 62.91" stroke="hsl(280.1, 60.6%, 64.7%)" stroke-width="1.5"></path><path d="M1566.59 62.91L1417.45 244.83" stroke="hsl(280.1, 60.6%, 64.7%)" stroke-width="1.5"></path><path d="M1612.3 380.42L1612.3 380.42" stroke="hsl(280.1, 60.6%, 64.7%)" stroke-width="1.5"></path><path d="M1612.3 380.42L1574.04 536.6" stroke="hsl(280.1, 60.6%, 64.7%)" stroke-width="1.5"></path><path d="M1612.3 380.42L1419.45 390.27" stroke="hsl(280.1, 60.6%, 64.7%)" stroke-width="1.5"></path><path d="M1574.04 536.6L1574.04 536.6" stroke="hsl(280.1, 60.6%, 64.7%)" stroke-width="1.5"></path><path d="M1574.04 536.6L1602.53 658.94" stroke="hsl(280.1, 60.6%, 64.7%)" stroke-width="1.5"></path><path d="M1574.04 536.6L1419.45 390.27" stroke="hsl(280.1, 60.6%, 64.7%)" stroke-width="1.5"></path><path d="M1574.04 536.6L1260.8 534.95" stroke="hsl(280.1, 60.6%, 64.7%)" stroke-width="1.5"></path><path d="M1602.53 658.94L1602.53 658.94" stroke="hsl(280.1, 60.6%, 64.7%)" stroke-width="1.5"></path><circle r="25" cx="-106.39" cy="700.88" fill="url(&quot;#SvgjsRadialGradient1056&quot;)"></circle><circle r="25" cx="490.34" cy="542.04" fill="url(&quot;#SvgjsRadialGradient1056&quot;)"></circle><circle r="25" cx="847.11" cy="339.11" fill="url(&quot;#SvgjsRadialGradient1056&quot;)"></circle><circle r="25" cx="953.99" cy="489.17" fill="url(&quot;#SvgjsRadialGradient1056&quot;)"></circle><circle r="25" cx="1104.09" cy="549.62" fill="url(&quot;#SvgjsRadialGradient1056&quot;)"></circle><circle r="25" cx="1260.8" cy="534.95" fill="url(&quot;#SvgjsRadialGradient1056&quot;)"></circle><circle r="25" cx="1417.45" cy="244.83" fill="url(&quot;#SvgjsRadialGradient1056&quot;)"></circle><circle r="25" cx="1588.85" cy="198.86" fill="url(&quot;#SvgjsRadialGradient1056&quot;)"></circle><circle r="5" cx="-45.63" cy="520.55" fill="#cc99e6"></circle><circle r="5" cx="87.72" cy="556.91" fill="#cc99e6"></circle><circle r="5" cx="48.05" cy="671.9" fill="#cc99e6"></circle><circle r="5" cx="235.91" cy="551.46" fill="#cc99e6"></circle><circle r="5" cx="211.63" cy="656.91" fill="#cc99e6"></circle><circle r="5" cx="406.88" cy="526.15" fill="#cc99e6"></circle><circle r="5" cx="404.66" cy="711.09" fill="#cc99e6"></circle><circle r="5" cx="555.88" cy="703.52" fill="#cc99e6"></circle><circle r="5" cx="660.71" cy="505.99" fill="#cc99e6"></circle><circle r="5" cx="689.92" cy="679.98" fill="#cc99e6"></circle><circle r="5" cx="789.62" cy="559.21" fill="#cc99e6"></circle><circle r="5" cx="826.93" cy="689.93" fill="#cc99e6"></circle><circle r="5" cx="987.66" cy="400.16" fill="#cc99e6"></circle><circle r="5" cx="942.41" cy="639.46" fill="#cc99e6"></circle><circle r="5" cx="1135.34" cy="109.14" fill="#cc99e6"></circle><circle r="5" cx="1129.56" cy="234.36" fill="#cc99e6"></circle><circle r="5" cx="1129.37" cy="347.24" fill="#cc99e6"></circle><circle r="5" cx="1161.27" cy="663.72" fill="#cc99e6"></circle><circle r="5" cx="1303.81" cy="-63.84" fill="#cc99e6"></circle><circle r="5" cx="1309.14" cy="60.85" fill="#cc99e6"></circle><circle r="5" cx="1246.79" cy="210.04" fill="#cc99e6"></circle><circle r="5" cx="1262.38" cy="392.35" fill="#cc99e6"></circle><circle r="5" cx="1281.04" cy="650.08" fill="#cc99e6"></circle><circle r="5" cx="1399.88" cy="-92.07" fill="#cc99e6"></circle><circle r="5" cx="1427.17" cy="84.13" fill="#cc99e6"></circle><circle r="5" cx="1419.45" cy="390.27" fill="#cc99e6"></circle><circle r="5" cx="1445.23" cy="559.94" fill="#cc99e6"></circle><circle r="5" cx="1454.24" cy="675.8" fill="#cc99e6"></circle><circle r="5" cx="1582.1" cy="-68.58" fill="#cc99e6"></circle><circle r="5" cx="1566.59" cy="62.91" fill="#cc99e6"></circle><circle r="5" cx="1612.3" cy="380.42" fill="#cc99e6"></circle><circle r="5" cx="1574.04" cy="536.6" fill="#cc99e6"></circle><circle r="5" cx="1602.53" cy="658.94" fill="#cc99e6"></circle></g><defs><mask id="SvgjsMask1054"><rect width="1440" height="560" fill="#ffffff"></rect></mask><linearGradient x1="15.28%" y1="-39.29%" x2="84.72%" y2="139.29%" gradientUnits="userSpaceOnUse" id="SvgjsLinearGradient1055"><stop stop-color="#0e2a47" offset="0"></stop><stop stop-color="rgba(158, 0, 156, 1)" offset="1"></stop></linearGradient><radialGradient id="SvgjsRadialGradient1056"><stop stop-color="#ffffff" offset="0.1"></stop><stop stop-color="rgba(153, 50, 204, 1)" offset="0.2"></stop><stop stop-color="rgba(153, 50, 204, 0)" offset="1"></stop></radialGradient></defs></svg>